<svg xmlns="http://www.w3.org/2000/svg" version="1.1" xmlns:xlink="http://www.w3.org/1999/xlink" xmlns:svgjs="http://svgjs.com/svgjs" width="1440" height="560" preserveAspectRatio="none" viewBox="0 0 1440 560"><g mask="url(&quot;#SvgjsMask1026&quot;)" fill="none"><rect width="1440" height="560" x="0" y="0" fill="rgba(39, 49, 74, 1)"></rect><path d="M859.78 376.56a45.56 45.56 0 1 0-30.93 85.71z" stroke="rgba(3, 162, 101, 0.5)"></path><path d="M1121.94 144.47a24.4 24.4 0 1 0-32.82-36.11z" fill="rgba(3, 162, 101, 0.5)"></path><path d="M206.89 119.97L214.66 119.97L214.66 127.74L206.89 127.74z" stroke="rgba(3, 84, 123, 0.5)"></path><path d="M486.26 322.67 a45.39 45.39 0 1 0 90.78 0 a45.39 45.39 0 1 0 -90.78 0z" stroke="rgba(3, 84, 123, 0.5)"></path><path d="M789.72 454.89L798.44 454.89L798.44 463.61L789.72 463.61z" stroke="rgba(211, 66, 33, 0.5)"></path><path d="M903.06 558.45L913.66 558.45L913.66 569.05L903.06 569.05z" fill="rgba(211, 66, 33, 0.5)"></path><path d="M1307.59 168.5L1323.85 168.5L1323.85 184.76L1307.59 184.76z" fill="rgba(3, 84, 123, 0.5)"></path><path d="M897.65 465.02 a20.72 20.72 0 1 0 41.44 0 a20.72 20.72 0 1 0 -41.44 0z" fill="rgba(3, 84, 123, 0.5)"></path><path d="M96.58 529.75L105.19 529.75L105.19 577.58L96.58 577.58z" fill="rgba(3, 84, 123, 0.5)"></path><path d="M924.76 572.39a36.39 36.39 0 1 0-58.77-42.93z" stroke="rgba(3, 162, 101, 0.5)"></path><path d="M886.96 550.9a48.29 48.29 0 1 0 26.02-93.01z" stroke="rgba(3, 162, 101, 0.5)"></path><path d="M1342.37 192.66 a25.6 25.6 0 1 0 51.2 0 a25.6 25.6 0 1 0 -51.2 0z" fill="rgba(211, 66, 33, 0.5)"></path><path d="M1030.83 36.8 a33.79 33.79 0 1 0 67.58 0 a33.79 33.79 0 1 0 -67.58 0z" stroke="rgba(211, 66, 33, 0.5)"></path><path d="M231.97 85.14L283.84 85.14L283.84 124.02L231.97 124.02z" stroke="rgba(211, 66, 33, 0.5)"></path><path d="M240.7 512.9L281.01 512.9L281.01 517.23L240.7 517.23z" fill="rgba(3, 162, 101, 0.5)"></path><path d="M282.25 485.08L312.45 485.08L312.45 515.28L282.25 515.28z" stroke="rgba(211, 66, 33, 0.5)"></path><path d="M-39.34 231.43 a45.22 45.22 0 1 0 90.44 0 a45.22 45.22 0 1 0 -90.44 0z" stroke="rgba(3, 162, 101, 0.5)"></path><path d="M1194.06 24 a47.89 47.89 0 1 0 95.78 0 a47.89 47.89 0 1 0 -95.78 0z" stroke="rgba(3, 84, 123, 0.5)"></path><path d="M816.99 484.48a23.63 23.63 0 1 0 32.9 33.92z" stroke="rgba(211, 66, 33, 0.5)"></path><path d="M707.1 513.84a1.34 1.34 0 1 0-2.56 0.79z" fill="rgba(3, 84, 123, 0.5)"></path><path d="M1012.74 344.19L1059.53 344.19L1059.53 390.98L1012.74 390.98z" stroke="rgba(211, 66, 33, 0.5)"></path><path d="M623.17 506.92a31.32 31.32 0 1 0 5.04 62.44z" fill="rgba(3, 84, 123, 0.5)"></path><path d="M1047.73 98.1L1063.01 98.1L1063.01 101.01L1047.73 101.01z" stroke="rgba(3, 84, 123, 0.5)"></path><path d="M479.13 472.13 a10.69 10.69 0 1 0 21.38 0 a10.69 10.69 0 1 0 -21.38 0z" stroke="rgba(3, 162, 101, 0.5)"></path><path d="M433.66 276.8L444.29 276.8L444.29 301.63L433.66 301.63z" stroke="rgba(3, 162, 101, 0.5)"></path><path d="M1309.77 444.03L1354.71 444.03L1354.71 488.97L1309.77 488.97z" fill="rgba(3, 84, 123, 0.5)"></path><path d="M307.32 518.99a45.98 45.98 0 1 0 52.49-75.51z" fill="rgba(211, 66, 33, 0.5)"></path><path d="M1068.38 226.02L1076.67 226.02L1076.67 234.31L1068.38 234.31z" stroke="rgba(211, 66, 33, 0.5)"></path><path d="M329.4 96.53L369.26 96.53L369.26 117.28L329.4 117.28z" stroke="rgba(211, 66, 33, 0.5)"></path><path d="M879.24 164.44L903.83 164.44L903.83 189.03L879.24 189.03z" stroke="rgba(3, 84, 123, 0.5)"></path><path d="M754.51 297.43L801.83 297.43L801.83 314.28L754.51 314.28z" stroke="rgba(3, 84, 123, 0.5)"></path><path d="M1229.33 224.7a28.07 28.07 0 1 0-55.79-6.27z" stroke="rgba(3, 84, 123, 0.5)"></path><path d="M160.06 458.7a9.83 9.83 0 1 0 19.44-2.98z" fill="rgba(3, 162, 101, 0.5)"></path></g><defs><mask id="SvgjsMask1026"><rect width="1440" height="560" fill="#ffffff"></rect></mask></defs></svg>